<?xml version="1.0" encoding="UTF-8" standalone="no"?>
<svg
   xmlns:dc="http://purl.org/dc/elements/1.1/"
   xmlns:cc="http://creativecommons.org/ns#"
   xmlns:rdf="http://www.w3.org/1999/02/22-rdf-syntax-ns#"
   xmlns:svg="http://www.w3.org/2000/svg"
   xmlns="http://www.w3.org/2000/svg"
   xmlns:sodipodi="http://sodipodi.sourceforge.net/DTD/sodipodi-0.dtd"
   xmlns:inkscape="http://www.inkscape.org/namespaces/inkscape"
   width="24"
   height="24"
   version="1.1"
   viewBox="0 0 24 24"
   id="svg867"
   sodipodi:docname="Chain_link_icon.svg"
   inkscape:version="0.92.4 (5da689c313, 2019-01-14)">
  <defs
     id="defs871" />
  <sodipodi:namedview
     pagecolor="#ffffff"
     bordercolor="#666666"
     borderopacity="1"
     objecttolerance="10"
     gridtolerance="10"
     guidetolerance="10"
     inkscape:pageopacity="0"
     inkscape:pageshadow="2"
     inkscape:window-width="2055"
     inkscape:window-height="1409"
     id="namedview869"
     showgrid="false"
     inkscape:zoom="67.875"
     inkscape:cx="12.618785"
     inkscape:cy="12"
     inkscape:window-x="1611"
     inkscape:window-y="94"
     inkscape:window-maximized="0"
     inkscape:current-layer="svg867" />
  <metadata
     id="metadata863">
    <rdf:RDF>
      <cc:Work
         rdf:about="">
        <dc:format>image/svg+xml</dc:format>
        <dc:type
           rdf:resource="http://purl.org/dc/dcmitype/StillImage" />
        <dc:title />
      </cc:Work>
    </rdf:RDF>
  </metadata>
  <path
     d="m 19.69017,15.294217 c -0.03449,-2.099683 -1.958927,-3.568298 -3.383399,-5.045063 0.0033,0.199971 0.108205,0.498283 0.113147,0.798247 0.0082,0.499927 -0.08355,1.001514 -0.275302,1.504736 0.813065,0.78676 1.72611,1.571867 1.745817,2.771687 0.0099,0.599914 -0.278604,1.30478 -0.670333,1.811291 -0.983415,1.016296 -2.583239,1.042603 -3.599535,0.0592 l -2.642427,-2.556933 c -0.406518,-0.393366 -0.719635,-1.188325 -0.729521,-1.788274 -0.02302,-1.399811 0.865337,-2.114499 1.956992,-2.632533 L 10.884393,8.9380967 C 9.3977837,9.7626206 8.3176231,10.980582 8.3472099,12.780342 c 0.019729,1.199842 0.5377421,2.291476 1.3491637,2.978263 l 2.6424274,2.556934 c 0.914681,0.885087 2.024408,1.466936 3.324212,1.445528 2.196435,-0.236184 4.063292,-2.267133 4.027101,-4.466807 z M 7.5208098,11.193398 6.606129,10.308312 C 6.1996034,9.9149385 5.8864942,9.1199867 5.8766079,8.5200385 5.8667434,7.9201253 6.155212,7.2152587 6.5469407,6.7087476 7.5303551,5.6924515 9.2301515,5.6645014 10.146476,6.6495597 l 2.642427,2.556933 c 0.406519,0.3933659 0.719635,1.1883253 0.729522,1.7882733 0.02302,1.399812 -0.965316,2.116137 -1.956992,2.632534 l 1.321212,1.278467 C 14.369262,14.081249 15.449416,12.863281 15.419829,11.06352 15.4001,9.8636796 14.882088,8.7720451 14.070665,8.0852572 L 11.428238,5.528324 C 9.7004916,3.8564778 7.00084,3.9008687 5.4291065,5.6269689 3.8556574,7.2530283 3.8016512,10.054367 5.5261077,11.526129 L 7.4570845,13.39463 C 7.3521665,13.096317 7.347234,12.796362 7.3422954,12.496397 7.3340785,11.99647 7.3274984,11.596514 7.520921,11.193256 Z"
     id="path865"
     inkscape:connector-curvature="0"
     inkscape:export-filename="/home/daira/zips/assets/images/section-anchor.png"
     inkscape:export-xdpi="450"
     inkscape:export-ydpi="450"
     style="fill:#0097c1;fill-opacity:1" />
</svg>
